<?xml version="1.0" encoding="utf-8"?>
<!-- Generator: Adobe Illustrator 25.2.1, SVG Export Plug-In . SVG Version: 6.00 Build 0)  -->
<svg version="1.1" id="Layer_1" xmlns="http://www.w3.org/2000/svg" xmlns:xlink="http://www.w3.org/1999/xlink" x="0px" y="0px"
	 viewBox="0 0 16 16" style="enable-background:new 0 0 16 16;" xml:space="preserve">
<style type="text/css">
	.st0{fill:#F07C07;}
</style>
<path class="st0" d="M15.8,0.1C16,0.3,16,0.5,16,0.7c-1.5,3.4-4.7,8.2-7.1,10.6c-0.7,0.7-1.5,1.2-2.4,1.5c0,0.2-0.1,0.5-0.2,0.9
	c-0.2,0.7-0.7,1.5-1.7,1.7c-1,0.2-2.1,0.3-3.1,0.1c-0.2,0-0.4-0.1-0.6-0.1c-0.2-0.1-0.3-0.1-0.5-0.2c-0.1-0.1-0.2-0.2-0.2-0.3
	c-0.1-0.1-0.1-0.3,0-0.4c0.1-0.2,0.3-0.4,0.5-0.5c0.4-0.2,0.6-0.5,0.9-0.8c0.1-0.1,0.2-0.3,0.3-0.5L2,12.6c0.2-0.3,0.3-0.5,0.5-0.8
	c0.5-0.7,1.2-0.9,1.7-0.9c0.1,0,0.2,0,0.3,0c0.1-0.2,0.1-0.4,0.2-0.6c0.3-0.6,0.7-1.4,1.2-2.1c2.2-2.7,6.2-6.2,9.1-8.1
	C15.4,0,15.7,0,15.8,0.1"/>
</svg>
