<?xml version="1.0" encoding="utf-8"?>
<!-- Generator: Adobe Illustrator 25.2.1, SVG Export Plug-In . SVG Version: 6.00 Build 0)  -->
<svg version="1.1" id="Layer_1" xmlns="http://www.w3.org/2000/svg" xmlns:xlink="http://www.w3.org/1999/xlink" x="0px" y="0px"
	 viewBox="0 0 16 16" style="enable-background:new 0 0 16 16;" xml:space="preserve">
<style type="text/css">
	.st0{fill:#F07C07;}
</style>
<path class="st0" d="M13,2.5C13,1.7,13.7,1,14.5,1S16,1.7,16,2.5v11c0,0.8-0.7,1.5-1.5,1.5S13,14.3,13,13.5V2.5z M12,3.2
	C9.9,4.2,7.5,4.7,5,4.9v6.2c0.4,0,0.7,0,1.1,0.1c2.1,0.2,4,0.7,5.9,1.6V3.2z M4,11.1V4.9C3.3,5,2.6,5,2,5C0.9,5,0,5.9,0,7v2
	c0,1.1,0.9,2,2,2l0.5,0C3,11,3.5,11,4,11.1 M5.4,12.1c0.3,0,0.6,0,0.8,0.1l0.3,1.7c0.1,0.5-0.3,1.1-0.8,1.2c-0.1,0-0.1,0-0.2,0H5
	c-0.4,0-0.8-0.2-0.9-0.6L2.7,12c0.6,0,1.1,0,1.7,0.1C4.8,12.1,5.1,12.1,5.4,12.1"/>
</svg>
